<?xml version="1.0" encoding="iso-8859-1"?>
<!-- Generator: Adobe Illustrator 19.0.0, SVG Export Plug-In . SVG Version: 6.00 Build 0)  -->
<svg version="1.1" id="Layer_1" xmlns="http://www.w3.org/2000/svg" xmlns:xlink="http://www.w3.org/1999/xlink" x="0px" y="0px"
	 viewBox="0 0 512 512" style="enable-background:new 0 0 512 512;" xml:space="preserve">
<path style="fill:#FF8F00;" d="M427.167,112.706c-17.424-34.737-57.616-50.42-93.395-38.195
	c-34.182-15.751-72.206-18.927-107.567-9.997c-28.684-5.378-57.975-2.775-84.824,6.872c-0.043-0.026-0.094-0.051-0.137-0.077
	c-9.109-4.798-19.934-5.745-29.658-2.365c-50.061,17.39-86.019,64.899-86.019,120.884c0,39.125,401.599,27.745,401.599-19.917
	S427.167,112.706,427.167,112.706z"/>
<path style="fill:#558B2F;" d="M230.251,69.543c-2.168-1.938-5.361-2.023-7.888-0.581c-9.399,5.378-20.19,8.11-31.45,7.436
	c18.534,12.148,27.037,33.858,23.255,54.372c-7.18,4.158-12.438,11.269-14.103,19.669c0.213-0.956,5.31,2.049,5.848,2.399
	c0.529,0.359,20.6-2.681,26.397,2.484c5.797,5.165,9.314,9.783,11.286,16.007s8.204,5.515,10.338-1.955
	c1.682-5.882,5.669-11.431,12.285-14.001C267.584,123.48,255.034,91.696,230.251,69.543z"/>
<path style="fill:#AED581;" d="M278.34,125.486c-7.239-28.864-22.896-53.843-41.866-75.561c-6.036-6.906-14.504-10.355-22.982-9.246
	c-3.27,0.427-6.189,2.425-7.897,5.25c-5.805,9.613-10.808,19.763-14.692,30.477c11.269,0.674,22.06-2.057,31.45-7.436
	c2.527-1.443,5.72-1.366,7.888,0.581c24.783,22.162,37.332,53.937,35.967,85.84c1.784-0.691,3.722-1.212,5.899-1.417
	c10.27-0.948,18.807-1.127,18.807-1.127l5.353-2.561C293.144,140.17,286.707,131.59,278.34,125.486z"/>
<g>
	<path style="fill:#F57F17;" d="M487.72,160.189c-21.744-46.373-74.494-71.643-123.855-57.966
		c-27.421,7.598-53.305,22.162-74.861,43.718h21.573c13.659,0,26.781,5.25,36.795,14.556
		c36.923,34.302,58.231,82.152,58.709,131.778c0.581,60.391-18.005,117.393-47.816,165.14
		c86.719-13.617,151.626-88.76,153.667-179.559C512.827,237.68,505.075,197.197,487.72,160.189z"/>
	<path style="fill:#F57F17;" d="M132.724,207.971c9.237-17.142,20.361-33.294,33.192-48.132c4.772-5.515,11.329-9.271,18.474-10.748
		c7.846-1.622,15.956-2.536,24.288-2.536c-24.51-13.796-50.326-25.551-77.354-34.72c-44.888-15.23-96.349,8.622-112.953,53.015
		C-0.991,216.636-5.046,272.835,6.197,326.473c5.216,24.885,18.764,46.979,38.485,63.037c7.564,6.155,15.554,11.807,23.938,16.903
		c18.32,25.825,48.226,40.286,79.019,39.467C98.926,376.774,92.011,283.507,132.724,207.971z"/>
</g>
<path style="fill:#FF6F00;" d="M347.362,160.488c-10.005-9.297-23.127-14.556-36.795-14.556h-21.573c0,0-11.884,1.059-15.862,1.212
	c-9.536,0.367-17.868,5.455-22.273,13.079c-1.537,2.655-5.131,2.655-6.659-0.009c-4.405-7.675-12.737-12.814-22.29-13.07
	c-3.039-0.085-7.922-0.316-13.241-0.589c-8.332,0-16.434,0.905-24.288,2.536c-7.145,1.477-13.693,5.233-18.474,10.748
	c-12.84,14.829-23.955,30.989-33.192,48.132c-40.713,75.536-33.79,168.803,14.906,237.91c21.436,24.015,55.115,31.698,84.192,20.779
	c5.131-1.929,10.731-1.861,16.05-0.504c36.496,9.314,75.45,6.42,110.392-8.75c29.811-47.748,48.396-104.758,47.816-165.14
	C405.593,242.64,384.285,194.79,347.362,160.488z"/>
<g>
	<path style="fill:#FFF59D;" d="M137.676,206.289c-11.986,3.031-20.438,13.864-20.771,26.226
		c-0.265,10.091-0.051,20.19,0.649,30.264c1.357,19.507,19.482,33.824,38.647,29.965c15.614-3.15,30.887-7.794,45.622-13.864
		c10.074-4.149,21.59-12.413,20.549-23.255C220.843,239.882,159.087,200.868,137.676,206.289z"/>
	<path style="fill:#FFF59D;" d="M371.898,207.851c-19.524-4.294-63.908,19.242-76.347,26.525
		c-19.567,11.448,6.463,42.147,28.343,48.089c13.523,3.671,27.31,6.403,41.259,8.187c13.002,1.656,24.86-8.213,25.679-21.291
		c0.82-13.104,0.785-26.303-0.12-39.518C389.979,219.154,382.356,210.148,371.898,207.851z"/>
</g>
<path style="fill:#FFEE58;" d="M288.474,333.149c0,17.245-13.984,11.166-31.228,11.166s-31.228,6.078-31.228-11.166
	c0-17.245,22.939-66.478,31.228-66.478C266.312,266.671,288.474,315.905,288.474,333.149z"/>
<path style="fill:#FBC02D;" d="M356.002,368.809l6.608,24.681c0.606,2.279-0.743,4.619-3.022,5.225l-17.441,4.67
	c-2.279,0.606-4.619-0.743-5.225-3.022l-7.017-26.234c-12.37,2.134-24.92,3.748-37.623,4.806l-3.287,25.859
	c-0.299,2.339-2.433,3.995-4.772,3.697l-17.919-2.279c-2.339-0.299-3.995-2.433-3.697-4.772l2.681-21.112
	c-3.073,0.06-6.13,0.171-9.211,0.171c-6.369,0-12.669-0.307-18.969-0.589l2.962,21.36c0.324,2.339-1.306,4.49-3.645,4.815
	l-17.885,2.484c-2.339,0.324-4.49-1.306-4.815-3.645l-3.748-27.028c-6.377-0.683-12.695-1.528-18.978-2.484l-1.34,12.208
	c-0.256,2.348-2.365,4.038-4.712,3.782l-17.953-1.972c-2.339-0.256-4.038-2.365-3.773-4.712l1.545-14.086
	c-4.49-0.965-9.024-1.81-13.463-2.911c5.37,14.513,12.225,28.599,20.677,41.968c2.612,4.132,5.72,7.863,9.143,11.243l-2.023-10.458
	c-0.444-2.314,1.067-4.55,3.381-5.003l17.731-3.423c2.314-0.444,4.55,1.067,5.003,3.381l6.249,32.355
	c8.913,2.237,17.928,3.91,27.003,5.02l0.239-20.412c0.026-2.356,1.964-4.243,4.32-4.217l18.056,0.213
	c2.356,0.026,4.243,1.964,4.217,4.32l-0.256,21.684c10.296,0.026,20.591-0.649,30.802-2.057l2.425-24.578
	c0.23-2.348,2.322-4.064,4.67-3.825l17.97,1.776c2.348,0.231,4.064,2.322,3.833,4.67l-1.622,16.408
	c1.485-0.401,2.988-0.709,4.465-1.144c17.646-5.139,32.125-17.902,39.74-34.635c5.711-12.549,10.185-25.526,13.471-38.733
	C372.632,364.685,364.351,366.836,356.002,368.809z"/>
<g>
</g>
<g>
</g>
<g>
</g>
<g>
</g>
<g>
</g>
<g>
</g>
<g>
</g>
<g>
</g>
<g>
</g>
<g>
</g>
<g>
</g>
<g>
</g>
<g>
</g>
<g>
</g>
<g>
</g>
</svg>
