<svg xmlnsRdf="http://www.w3.org/1999/02/22-rdf-syntax-ns#" xmlns="http://www.w3.org/2000/svg" height="196.71" width="148" version="1.1" xmlnsCc="http://creativecommons.org/ns#" xmlnsDc="http://purl.org/dc/elements/1.1/" viewBox="0 0 147.99968 196.70968"><script xmlns=""/>
 <g transform="translate(110.29 -432.03)">
  <path d="m-77.449 433.32c-18.586 0-31.854 13.574-31.77 31.333v35.061c0 12.015 10.101 23.89 24.277 23.89h56.677c3.9069 0 4.9582 3.565 4.9582 4.9328 0 0.48605-0.04701 30.841-0.04701 30.841 0.02315 8.0846-4.7105 14.444-13.117 14.444h-8.2564v-42.529h-19.768v0.0326h-0.0072l0.01085 42.497h-20.805c-3.532-0.12035-4.1481-3.4524-4.1481-4.9545 0-1.0438-0.0217-14.365-0.0217-19.156 0-5.0943 6.2596-6.7487 7.7826-7.1352 0.19442-0.0487 0.32693-0.15654 0.30378-0.38335-0.01629-0.18275-0.13902-0.264-0.264-0.264h-27.568c0 10.052-0.004 29.503-0.004 29.528-0.0625 10.445 8.5526 22.136 21.102 22.136h22.274 1.3562c0 0.6203-0.0036 20.811-0.0036 21.323-0.05786 1.7683-0.35571 3.3154-0.82093 4.6833-1.8238 4.8188-6.2986 7.1801-8.3214 7.6198-0.51614 0.1111-0.51889 0.70275-0.09764 0.78839 0.01611 0.006 0.02257 0.0217 0.0434 0.0217h66.12l0.57863-0.004c28.075 0 43.766-13.657 43.766-41.325v-73.081c0-27.927-15.754-41.177-43.535-41.177 0 0-66.294 0.0181-66.875 0.0181-0.5254 0-0.56474 0.82903 0 0.90773 0.52308 0.0717 9.1279 0.7797 9.1279 8.6722l0.0036 21.822c-6.189 0-19.719 0.0232-20.321 0-3.3352-0.0394-4.4712-2.4308-4.6471-4.2963 0.0046-5.129 0.006-31.168 0.01085-31.51 0.19673-9.8946 5.5484-14.947 14.853-14.947l44.974-0.0217c2.6015 0 4.8533 1.2717 4.8533 4.4518 0 3.1987-3.3856 4.1202-3.9781 4.4048-0.25691 0.14813-0.31232 0.54608-0.02532 0.54608h25.134l-0.010851-8.2889c-0.20136-6.0849-4.2344-20.874-23.116-20.874l-50.677-0.007zm32.722 57.516h39.727c13.366 0 22.006 9.6044 22.006 22.024v77.034c0 12.843-10.099 19.713-22.852 19.713-11.695 0-32.009 0.0152-38.88 0.0217v-16.035h10.459c18.586 0 30.754-13.451 30.754-31.109 0 0-0.00362-34.299-0.00362-36.378 0-7.5963-6.2133-22.245-24.274-22.245h-16.936v-13.026z" fill="#002d62"/>
 </g>
</svg>